<mxfile host="app.diagrams.net" modified="2023-04-15T17:27:34.016Z" agent="Mozilla/5.0 (Windows NT 10.0; Win64; x64) AppleWebKit/537.36 (KHTML, like Gecko) Chrome/111.0.0.0 Safari/537.36 OPR/97.0.0.0" etag="coGc2HZkXhzlCjaIYzL9" version="21.1.4">
  <diagram name="Страница 1" id="8gCADdNgLz2kUwqrJrQQ">
    <mxGraphModel dx="1394" dy="766" grid="1" gridSize="10" guides="1" tooltips="1" connect="1" arrows="1" fold="1" page="1" pageScale="1" pageWidth="827" pageHeight="1169" math="0" shadow="0">
      <root>
        <mxCell id="0" />
        <mxCell id="1" parent="0" />
        <mxCell id="5JDfJ07FDdf0CoFAMKH8-1" value="&lt;font style=&quot;font-size: 14px;&quot;&gt;Source Layer&lt;br&gt;(Источники данных&lt;/font&gt;)" style="rounded=0;whiteSpace=wrap;html=1;" vertex="1" parent="1">
          <mxGeometry x="85" y="120" width="120" height="60" as="geometry" />
        </mxCell>
        <mxCell id="5JDfJ07FDdf0CoFAMKH8-2" value="&lt;font style=&quot;font-size: 14px;&quot;&gt;Storage Layer&lt;br&gt;(Хранение данных)&lt;/font&gt;" style="rounded=0;whiteSpace=wrap;html=1;" vertex="1" parent="1">
          <mxGeometry x="360" y="120" width="120" height="60" as="geometry" />
        </mxCell>
        <mxCell id="5JDfJ07FDdf0CoFAMKH8-3" value="&lt;font style=&quot;font-size: 14px;&quot;&gt;Business Layer&lt;br&gt;(Доступ к данным)&lt;/font&gt;" style="rounded=0;whiteSpace=wrap;html=1;" vertex="1" parent="1">
          <mxGeometry x="680" y="120" width="120" height="60" as="geometry" />
        </mxCell>
        <mxCell id="5JDfJ07FDdf0CoFAMKH8-4" value="" style="endArrow=none;html=1;rounded=0;" edge="1" parent="1">
          <mxGeometry width="50" height="50" relative="1" as="geometry">
            <mxPoint x="280" y="600" as="sourcePoint" />
            <mxPoint x="280" y="80" as="targetPoint" />
          </mxGeometry>
        </mxCell>
        <mxCell id="5JDfJ07FDdf0CoFAMKH8-5" value="" style="endArrow=none;html=1;rounded=0;" edge="1" parent="1" source="5JDfJ07FDdf0CoFAMKH8-23">
          <mxGeometry width="50" height="50" relative="1" as="geometry">
            <mxPoint x="640" y="600" as="sourcePoint" />
            <mxPoint x="640" y="80" as="targetPoint" />
          </mxGeometry>
        </mxCell>
        <mxCell id="5JDfJ07FDdf0CoFAMKH8-7" value="&lt;font style=&quot;font-size: 14px;&quot;&gt;Data Warehouse&lt;br&gt;(Хранилище данных)&lt;/font&gt;" style="shape=cylinder;whiteSpace=wrap;html=1;boundedLbl=1;backgroundOutline=1;" vertex="1" parent="1">
          <mxGeometry x="354" y="280" width="146" height="180" as="geometry" />
        </mxCell>
        <mxCell id="5JDfJ07FDdf0CoFAMKH8-8" value="&lt;font style=&quot;font-size: 14px;&quot;&gt;Data Lake&lt;br&gt;(Озеро данных)&lt;/font&gt;" style="shape=cloud;whiteSpace=wrap;html=1;" vertex="1" parent="1">
          <mxGeometry x="340" y="490" width="180" height="140" as="geometry" />
        </mxCell>
        <mxCell id="5JDfJ07FDdf0CoFAMKH8-9" value="" style="endArrow=classic;html=1;rounded=0;exitX=0.128;exitY=0.55;exitDx=0;exitDy=0;exitPerimeter=0;entryX=0.007;entryY=0.867;entryDx=0;entryDy=0;entryPerimeter=0;" edge="1" parent="1" source="5JDfJ07FDdf0CoFAMKH8-8" target="5JDfJ07FDdf0CoFAMKH8-7">
          <mxGeometry width="50" height="50" relative="1" as="geometry">
            <mxPoint x="390" y="340" as="sourcePoint" />
            <mxPoint x="440" y="290" as="targetPoint" />
            <Array as="points">
              <mxPoint x="300" y="500" />
              <mxPoint x="300" y="436" />
            </Array>
          </mxGeometry>
        </mxCell>
        <mxCell id="5JDfJ07FDdf0CoFAMKH8-10" value="&lt;font style=&quot;font-size: 14px;&quot;&gt;Business Decision&lt;br&gt;(Решение на основе данных)&lt;/font&gt;" style="shape=parallelogram;perimeter=parallelogramPerimeter;whiteSpace=wrap;html=1;dashed=0;" vertex="1" parent="1">
          <mxGeometry x="890" y="335" width="180" height="70" as="geometry" />
        </mxCell>
        <mxCell id="5JDfJ07FDdf0CoFAMKH8-11" value="&lt;font style=&quot;font-size: 14px;&quot;&gt;CRM&lt;br&gt;(Система взаимодействия с клиентами)&lt;/font&gt;" style="html=1;dashed=0;whiteSpace=wrap;shape=mxgraph.dfd.start" vertex="1" parent="1">
          <mxGeometry x="50" y="210" width="190" height="60" as="geometry" />
        </mxCell>
        <mxCell id="5JDfJ07FDdf0CoFAMKH8-12" value="&lt;font style=&quot;font-size: 14px;&quot;&gt;Files&lt;br&gt;(Excel, CSV)&lt;/font&gt;" style="html=1;dashed=0;whiteSpace=wrap;shape=mxgraph.dfd.start" vertex="1" parent="1">
          <mxGeometry x="50" y="347.5" width="130" height="45" as="geometry" />
        </mxCell>
        <mxCell id="5JDfJ07FDdf0CoFAMKH8-13" value="&lt;font style=&quot;font-size: 14px;&quot;&gt;OLTP&lt;br&gt;(Обработка транзакций в реальном времени)&lt;/font&gt;" style="html=1;dashed=0;whiteSpace=wrap;shape=mxgraph.dfd.start" vertex="1" parent="1">
          <mxGeometry x="40" y="470" width="200" height="50" as="geometry" />
        </mxCell>
        <mxCell id="5JDfJ07FDdf0CoFAMKH8-14" value="&lt;font style=&quot;font-size: 14px;&quot;&gt;ELT&lt;br&gt;(Извлечение, выгрузка, преобразование)&lt;/font&gt;" style="html=1;dashed=0;whiteSpace=wrap;" vertex="1" parent="1">
          <mxGeometry x="220" y="335" width="120" height="70" as="geometry" />
        </mxCell>
        <mxCell id="5JDfJ07FDdf0CoFAMKH8-15" value="" style="endArrow=classic;html=1;rounded=0;exitX=0.655;exitY=0.04;exitDx=0;exitDy=0;exitPerimeter=0;entryX=0.317;entryY=0.986;entryDx=0;entryDy=0;entryPerimeter=0;" edge="1" parent="1" source="5JDfJ07FDdf0CoFAMKH8-13" target="5JDfJ07FDdf0CoFAMKH8-14">
          <mxGeometry width="50" height="50" relative="1" as="geometry">
            <mxPoint x="390" y="320" as="sourcePoint" />
            <mxPoint x="440" y="270" as="targetPoint" />
          </mxGeometry>
        </mxCell>
        <mxCell id="5JDfJ07FDdf0CoFAMKH8-16" value="" style="endArrow=classic;html=1;rounded=0;exitX=1;exitY=0.5;exitDx=0;exitDy=0;exitPerimeter=0;entryX=0;entryY=0.5;entryDx=0;entryDy=0;" edge="1" parent="1" source="5JDfJ07FDdf0CoFAMKH8-12" target="5JDfJ07FDdf0CoFAMKH8-14">
          <mxGeometry width="50" height="50" relative="1" as="geometry">
            <mxPoint x="390" y="320" as="sourcePoint" />
            <mxPoint x="440" y="270" as="targetPoint" />
          </mxGeometry>
        </mxCell>
        <mxCell id="5JDfJ07FDdf0CoFAMKH8-17" value="" style="endArrow=classic;html=1;rounded=0;exitX=0.5;exitY=0.5;exitDx=0;exitDy=30;exitPerimeter=0;entryX=0.308;entryY=0.014;entryDx=0;entryDy=0;entryPerimeter=0;" edge="1" parent="1" source="5JDfJ07FDdf0CoFAMKH8-11" target="5JDfJ07FDdf0CoFAMKH8-14">
          <mxGeometry width="50" height="50" relative="1" as="geometry">
            <mxPoint x="390" y="320" as="sourcePoint" />
            <mxPoint x="440" y="270" as="targetPoint" />
          </mxGeometry>
        </mxCell>
        <mxCell id="5JDfJ07FDdf0CoFAMKH8-19" value="&lt;font style=&quot;font-size: 14px;&quot;&gt;Data Mart&lt;br&gt;(требуемый набор&lt;br&gt;&amp;nbsp;данных)&lt;/font&gt;" style="html=1;dashed=0;whiteSpace=wrap;shape=mxgraph.dfd.archive" vertex="1" parent="1">
          <mxGeometry x="510" y="210" width="100" height="110" as="geometry" />
        </mxCell>
        <mxCell id="5JDfJ07FDdf0CoFAMKH8-20" value="&lt;font style=&quot;font-size: 14px;&quot;&gt;Business&lt;br&gt;Intelligence&lt;br&gt;(Бизнес аналитика)&lt;/font&gt;" style="shape=rhombus;html=1;dashed=0;whiteSpace=wrap;perimeter=rhombusPerimeter;" vertex="1" parent="1">
          <mxGeometry x="720" y="210" width="120" height="110" as="geometry" />
        </mxCell>
        <mxCell id="5JDfJ07FDdf0CoFAMKH8-21" value="" style="endArrow=classic;html=1;rounded=0;exitX=1.021;exitY=0.539;exitDx=0;exitDy=0;exitPerimeter=0;entryX=0.43;entryY=0.936;entryDx=0;entryDy=0;entryPerimeter=0;" edge="1" parent="1" source="5JDfJ07FDdf0CoFAMKH8-7" target="5JDfJ07FDdf0CoFAMKH8-19">
          <mxGeometry width="50" height="50" relative="1" as="geometry">
            <mxPoint x="560" y="430" as="sourcePoint" />
            <mxPoint x="610" y="380" as="targetPoint" />
          </mxGeometry>
        </mxCell>
        <mxCell id="5JDfJ07FDdf0CoFAMKH8-22" value="" style="endArrow=classic;html=1;rounded=0;exitX=0.75;exitY=0.5;exitDx=0;exitDy=0;exitPerimeter=0;" edge="1" parent="1" source="5JDfJ07FDdf0CoFAMKH8-19">
          <mxGeometry width="50" height="50" relative="1" as="geometry">
            <mxPoint x="610" y="310" as="sourcePoint" />
            <mxPoint x="620" y="330" as="targetPoint" />
          </mxGeometry>
        </mxCell>
        <mxCell id="5JDfJ07FDdf0CoFAMKH8-24" value="" style="endArrow=none;html=1;rounded=0;" edge="1" parent="1" target="5JDfJ07FDdf0CoFAMKH8-23">
          <mxGeometry width="50" height="50" relative="1" as="geometry">
            <mxPoint x="640" y="600" as="sourcePoint" />
            <mxPoint x="640" y="80" as="targetPoint" />
          </mxGeometry>
        </mxCell>
        <mxCell id="5JDfJ07FDdf0CoFAMKH8-23" value="&lt;font style=&quot;font-size: 14px;&quot;&gt;Serve&lt;br&gt;(Предоставление&lt;br&gt;данных)&lt;/font&gt;" style="html=1;dashed=0;whiteSpace=wrap;" vertex="1" parent="1">
          <mxGeometry x="580" y="335" width="120" height="70" as="geometry" />
        </mxCell>
        <mxCell id="5JDfJ07FDdf0CoFAMKH8-25" value="" style="endArrow=classic;html=1;rounded=0;exitX=0.945;exitY=0.917;exitDx=0;exitDy=0;exitPerimeter=0;entryX=0.158;entryY=1.029;entryDx=0;entryDy=0;entryPerimeter=0;" edge="1" parent="1" source="5JDfJ07FDdf0CoFAMKH8-7" target="5JDfJ07FDdf0CoFAMKH8-23">
          <mxGeometry width="50" height="50" relative="1" as="geometry">
            <mxPoint x="560" y="410" as="sourcePoint" />
            <mxPoint x="610" y="360" as="targetPoint" />
          </mxGeometry>
        </mxCell>
        <mxCell id="5JDfJ07FDdf0CoFAMKH8-26" value="Excel" style="shape=rhombus;html=1;dashed=0;whiteSpace=wrap;perimeter=rhombusPerimeter;" vertex="1" parent="1">
          <mxGeometry x="720" y="350" width="120" height="110" as="geometry" />
        </mxCell>
        <mxCell id="5JDfJ07FDdf0CoFAMKH8-27" value="&lt;font style=&quot;font-size: 14px;&quot;&gt;Power Point&lt;/font&gt;" style="shape=rhombus;html=1;dashed=0;whiteSpace=wrap;perimeter=rhombusPerimeter;" vertex="1" parent="1">
          <mxGeometry x="720" y="490" width="120" height="110" as="geometry" />
        </mxCell>
        <mxCell id="5JDfJ07FDdf0CoFAMKH8-28" value="" style="endArrow=classic;html=1;rounded=0;entryX=0;entryY=0.5;entryDx=0;entryDy=0;exitX=0.75;exitY=1;exitDx=0;exitDy=0;" edge="1" parent="1" source="5JDfJ07FDdf0CoFAMKH8-23" target="5JDfJ07FDdf0CoFAMKH8-27">
          <mxGeometry width="50" height="50" relative="1" as="geometry">
            <mxPoint x="560" y="410" as="sourcePoint" />
            <mxPoint x="610" y="360" as="targetPoint" />
          </mxGeometry>
        </mxCell>
        <mxCell id="5JDfJ07FDdf0CoFAMKH8-29" value="" style="endArrow=classic;html=1;rounded=0;exitX=1;exitY=0.5;exitDx=0;exitDy=0;" edge="1" parent="1" source="5JDfJ07FDdf0CoFAMKH8-23" target="5JDfJ07FDdf0CoFAMKH8-26">
          <mxGeometry width="50" height="50" relative="1" as="geometry">
            <mxPoint x="560" y="410" as="sourcePoint" />
            <mxPoint x="610" y="360" as="targetPoint" />
          </mxGeometry>
        </mxCell>
        <mxCell id="5JDfJ07FDdf0CoFAMKH8-30" value="" style="endArrow=classic;html=1;rounded=0;entryX=0.083;entryY=0.573;entryDx=0;entryDy=0;entryPerimeter=0;exitX=0.75;exitY=0;exitDx=0;exitDy=0;" edge="1" parent="1" source="5JDfJ07FDdf0CoFAMKH8-23" target="5JDfJ07FDdf0CoFAMKH8-20">
          <mxGeometry width="50" height="50" relative="1" as="geometry">
            <mxPoint x="670" y="330" as="sourcePoint" />
            <mxPoint x="610" y="360" as="targetPoint" />
          </mxGeometry>
        </mxCell>
        <mxCell id="5JDfJ07FDdf0CoFAMKH8-31" value="" style="endArrow=classic;html=1;rounded=0;entryX=0.378;entryY=1;entryDx=0;entryDy=0;entryPerimeter=0;exitX=1;exitY=0;exitDx=0;exitDy=0;" edge="1" parent="1" source="5JDfJ07FDdf0CoFAMKH8-27" target="5JDfJ07FDdf0CoFAMKH8-10">
          <mxGeometry width="50" height="50" relative="1" as="geometry">
            <mxPoint x="560" y="410" as="sourcePoint" />
            <mxPoint x="610" y="360" as="targetPoint" />
          </mxGeometry>
        </mxCell>
        <mxCell id="5JDfJ07FDdf0CoFAMKH8-32" value="" style="endArrow=classic;html=1;rounded=0;entryX=0;entryY=0.5;entryDx=0;entryDy=0;exitX=1;exitY=0.5;exitDx=0;exitDy=0;" edge="1" parent="1" source="5JDfJ07FDdf0CoFAMKH8-26" target="5JDfJ07FDdf0CoFAMKH8-10">
          <mxGeometry width="50" height="50" relative="1" as="geometry">
            <mxPoint x="560" y="410" as="sourcePoint" />
            <mxPoint x="610" y="360" as="targetPoint" />
          </mxGeometry>
        </mxCell>
        <mxCell id="5JDfJ07FDdf0CoFAMKH8-33" value="" style="endArrow=classic;html=1;rounded=0;entryX=0.25;entryY=0;entryDx=0;entryDy=0;exitX=0.983;exitY=0.564;exitDx=0;exitDy=0;exitPerimeter=0;" edge="1" parent="1" source="5JDfJ07FDdf0CoFAMKH8-20" target="5JDfJ07FDdf0CoFAMKH8-10">
          <mxGeometry width="50" height="50" relative="1" as="geometry">
            <mxPoint x="560" y="410" as="sourcePoint" />
            <mxPoint x="610" y="360" as="targetPoint" />
          </mxGeometry>
        </mxCell>
        <mxCell id="5JDfJ07FDdf0CoFAMKH8-34" value="" style="endArrow=none;html=1;rounded=0;" edge="1" parent="1">
          <mxGeometry relative="1" as="geometry">
            <mxPoint x="40" y="190" as="sourcePoint" />
            <mxPoint x="1080" y="190" as="targetPoint" />
          </mxGeometry>
        </mxCell>
        <mxCell id="5JDfJ07FDdf0CoFAMKH8-35" value="&lt;font style=&quot;font-size: 18px;&quot;&gt;Data Warehouse: simplified schema&lt;br&gt;Хранилище данных: упрощенная схема&lt;/font&gt;" style="text;html=1;align=center;verticalAlign=middle;resizable=0;points=[];autosize=1;strokeColor=none;fillColor=none;" vertex="1" parent="1">
          <mxGeometry x="330" y="10" width="360" height="60" as="geometry" />
        </mxCell>
      </root>
    </mxGraphModel>
  </diagram>
</mxfile>
